<?xml version="1.0" encoding="utf-8"?>
<!-- Generator: Adobe Illustrator 18.0.0, SVG Export Plug-In . SVG Version: 6.00 Build 0)  -->
<!DOCTYPE svg PUBLIC "-//W3C//DTD SVG 1.1//EN" "http://www.w3.org/Graphics/SVG/1.1/DTD/svg11.dtd">
<svg version="1.1" id="Layer_1" xmlns="http://www.w3.org/2000/svg" xmlns:xlink="http://www.w3.org/1999/xlink" x="0px" y="0px"
	 viewBox="0 0 64 64" enable-background="new 0 0 64 64" xml:space="preserve">
<g>
	<g>
		<g>
			<path d="M22,33.9l9.9-18.7C32,15,32,14.8,32,14.6L31,3.9c0,0,3.8-2,7,0c3.7,2.3,5,6.2,5,11c0,3.6-0.8,7.4-1,9.1h0h16.3
				c2.7,0,5.1,1.8,5.6,4.5c0.4,2.3-0.6,4.4-2.3,5.5c1.4,1,2.4,2.6,2.4,4.5c0,2.1-1.2,4-3,4.9c0.6,0.9,1,2,1,3.1c0,2.7-2,5-4.6,5.4
				c0.5,1,0.8,2.1,0.6,3.3C57.6,58,55.1,60,52.3,60H28c-3,0-6-2-6-5V33.9z"/>
		</g>
	</g>
	<g>
		<g>
			<path d="M16,31H2c-1.1,0-2,0.9-2,2v26c0,1.1,0.9,2,2,2h14c1.1,0,2-0.9,2-2V33C18,31.9,17.1,31,16,31z M11.5,58
				C10.1,58,9,56.9,9,55.5c0-1.4,1.1-2.5,2.5-2.5s2.5,1.1,2.5,2.5C14,56.9,12.9,58,11.5,58z"/>
		</g>
	</g>
</g>
</svg>
